<svg xmlns="http://www.w3.org/2000/svg" viewBox="0 0 200 160" fill="currentColor">
  <path d="M40 120 Q30 70 70 60 Q75 32 100 32 Q140 32 148 66 Q170 78 160 120 Q150 140 100 140 Q50 140 40 120 Z"/>
  <circle cx="132" cy="62" r="3.5" fill="#000" fill-opacity="0.75"/>
  <path d="M140 66 L158 62 L150 74 Z" fill="#9B1B30"/>
  <path d="M100 32 Q96 20 100 14 Q104 20 104 32" fill="#9B1B30"/>
  <g fill="currentColor" opacity="0.95">
    <circle cx="44" cy="138" r="3"/>
    <circle cx="60" cy="140" r="3"/>
    <circle cx="76" cy="141" r="3"/>
    <circle cx="92" cy="142" r="3"/>
    <circle cx="108" cy="142" r="3"/>
    <circle cx="124" cy="141" r="3"/>
    <circle cx="140" cy="140" r="3"/>
    <circle cx="156" cy="138" r="3"/>
  </g>
</svg>
